<?xml version="1.0" encoding="UTF-8"?>
<svg width="40px" height="40px" viewBox="0 0 40 40" version="1.1" xmlns="http://www.w3.org/2000/svg" xmlns:xlink="http://www.w3.org/1999/xlink">
    <title>Types/Psychic@2x</title>
    <defs>
        <linearGradient x1="50%" y1="0%" x2="50%" y2="100%" id="linearGradient-1">
            <stop stop-color="#F66F71" offset="0%"></stop>
            <stop stop-color="#FE9F92" offset="100%"></stop>
        </linearGradient>
        <rect id="path-2" x="0" y="0" width="30" height="30" rx="15"></rect>
        <filter x="-50.0%" y="-50.0%" width="200.0%" height="200.0%" filterUnits="objectBoundingBox" id="filter-3">
            <feOffset dx="0" dy="0" in="SourceAlpha" result="shadowOffsetOuter1"></feOffset>
            <feGaussianBlur stdDeviation="5" in="shadowOffsetOuter1" result="shadowBlurOuter1"></feGaussianBlur>
            <feColorMatrix values="0 0 0 0 0.97254902   0 0 0 0 0.48627451   0 0 0 0 0.478431373  0 0 0 0.7 0" type="matrix" in="shadowBlurOuter1"></feColorMatrix>
        </filter>
    </defs>
    <g id="Types/Psychic" stroke="none" stroke-width="1" fill="none" fill-rule="evenodd">
        <g id="Group" transform="translate(5.000000, 5.000000)">
            <g id="Rectangle">
                <use fill="black" fill-opacity="1" filter="url(#filter-3)" xlink:href="#path-2"></use>
                <use fill="url(#linearGradient-1)" fill-rule="evenodd" xlink:href="#path-2"></use>
            </g>
            <path d="M20.47451,19.626127 C19.2976407,20.5700183 17.5382349,20.846659 15.1962927,20.456049 C12.5310909,20.0115229 11.1096104,17.0735502 11.1096104,15.4943593 C11.1096104,11.7501571 13.8807938,10.8981099 15.7542915,10.8981099 C17.6277891,10.8981099 18.8499625,12.7246739 18.8499625,14.1388966 C18.8499625,15.5531194 17.8497228,16.7900752 16.2931444,16.7900752 C14.7365659,16.7900752 14.275547,15.6972806 14.275547,14.6926092 C14.275547,13.6879377 15.0884061,13.3339681 15.8297131,13.3339681 C16.5710201,13.3339681 16.8248728,13.966868 16.8248728,14.5108312 C16.8248728,15.0547944 16.4028191,15.2495842 16.0507899,15.2495842 C15.6987607,15.2495842 15.6639443,15.0719877 15.5292187,14.8853548 C15.3944931,14.6987219 15.7010514,13.9922616 15.1962927,13.9922616 C14.8597868,13.9922616 14.6601679,14.2629813 14.5974357,14.8044206 C14.7201164,15.849553 15.2853526,16.3630979 16.2931444,16.3450553 C17.8048321,16.3179914 18.5219664,15.1493311 18.3135591,13.9922616 C18.1051518,12.8351921 16.9822323,11.6056821 15.0114537,11.8541282 C13.040675,12.1025743 12.2360194,14.0938604 12.5906996,16.2218681 C12.9453798,18.3498757 15.4947178,19.5828648 17.4991643,19.1392717 C19.5036109,18.6956785 21.5,17.2445429 21.5,13.565342 C21.5,9.88614111 18.3135591,7.67460511 14.5140084,8.03907787 C10.7144577,8.40355064 8.35587048,11.7253564 8.50684095,15.716598 C8.65781142,19.7078396 12.4450242,21.8815723 15.6474933,21.9936143 C17.7824728,22.068309 19.5043826,21.487715 20.813223,20.2518325 C21.1075731,19.9893462 21.1970448,19.7556182 21.0816379,19.5506484 C20.966231,19.3456786 20.763855,19.3708381 20.47451,19.626127 Z" id="Path-9" fill="#FFFFFF"></path>
        </g>
    </g>
</svg>