<?xml version="1.0" encoding="UTF-8"?>
<svg width="40px" height="40px" viewBox="0 0 40 40" version="1.1" xmlns="http://www.w3.org/2000/svg" xmlns:xlink="http://www.w3.org/1999/xlink">
    <title>Types/Bug</title>
    <defs>
        <linearGradient x1="50%" y1="0%" x2="50%" y2="100%" id="linearGradient-1">
            <stop stop-color="#92BC2C" offset="0%"></stop>
            <stop stop-color="#AFC836" offset="100%"></stop>
        </linearGradient>
        <rect id="path-2" x="0" y="0" width="30" height="30" rx="15"></rect>
        <filter x="-50.0%" y="-50.0%" width="200.0%" height="200.0%" filterUnits="objectBoundingBox" id="filter-3">
            <feOffset dx="0" dy="0" in="SourceAlpha" result="shadowOffsetOuter1"></feOffset>
            <feGaussianBlur stdDeviation="5" in="shadowOffsetOuter1" result="shadowBlurOuter1"></feGaussianBlur>
            <feColorMatrix values="0 0 0 0 0.596078431   0 0 0 0 0.764705882   0 0 0 0 0.184313725  0 0 0 0.7 0" type="matrix" in="shadowBlurOuter1"></feColorMatrix>
        </filter>
    </defs>
    <g id="Types/Bug" stroke="none" stroke-width="1" fill="none" fill-rule="evenodd">
        <g id="Group" transform="translate(5.000000, 5.000000)">
            <g id="Rectangle">
                <use fill="black" fill-opacity="1" filter="url(#filter-3)" xlink:href="#path-2"></use>
                <use fill="url(#linearGradient-1)" fill-rule="evenodd" xlink:href="#path-2"></use>
            </g>
            <path d="M10.3000677,11.275677 C10.900369,12.0151919 11.3988796,12.526615 11.7955996,12.8099462 C12.1923196,13.0932773 12.8113817,13.3800072 13.6527857,13.6701356 C14.4236588,15.4705762 14.6536302,17.1815265 14.3427,18.8029865 C14.0317698,20.4244466 13.243012,21.8747331 11.9764267,23.1538462 C9.32547558,21.6031724 8,19.5395861 8,16.9630875 C8,14.3865888 8.76668924,12.4907853 10.3000677,11.275677 Z M19.6999323,11.275677 C21.2333108,12.4907853 22,14.3865888 22,16.9630875 C22,19.5395861 20.6745244,21.6031724 18.0235733,23.1538462 C16.756988,21.8747331 15.9682302,20.4244466 15.6573,18.8029865 C15.3463698,17.1815265 15.5763412,15.4705762 16.3472143,13.6701356 C17.1886183,13.3800072 17.8076804,13.0932773 18.2044004,12.8099462 C18.6011204,12.526615 19.099631,12.0151919 19.6999323,11.275677 Z M18.3991647,7.13675652 C18.73843,7.37431263 18.8208815,7.84191874 18.5833254,8.18118402 L17.3828651,9.89467793 C17.820918,10.03818 18.2583716,10.2204146 18.6952259,10.4413818 C17.8187426,11.9490342 16.6371889,12.7028603 15.1505648,12.7028603 C13.6639408,12.7028603 12.3924482,12.0002722 11.3360869,10.595096 C11.7858476,10.3080704 12.2438645,10.077258 12.7101375,9.90265884 L11.4073258,8.35175983 C11.1411048,8.03448995 11.182488,7.56147708 11.4997579,7.29525604 C11.8170278,7.02903499 12.2900407,7.07041825 12.5562617,7.38768814 L14.249143,9.40518545 C14.280908,9.44304152 14.3082937,9.48311487 14.3313539,9.52478967 L14.629407,9.50356089 L14.629407,9.50356089 L14.9422529,9.49592778 C15.2296803,9.49592778 15.5168523,9.51243553 15.8037689,9.54545103 L15.8441343,9.47828171 L15.8441343,9.47828171 L17.3547372,7.32091727 C17.5922933,6.98165199 18.0598994,6.89920042 18.3991647,7.13675652 Z" id="Path-3" fill="#FFFFFF"></path>
        </g>
    </g>
</svg>