<?xml version="1.0" encoding="UTF-8"?>
<svg width="40px" height="40px" viewBox="0 0 40 40" version="1.1" xmlns="http://www.w3.org/2000/svg" xmlns:xlink="http://www.w3.org/1999/xlink">
    <title>Types/Fire@2x</title>
    <defs>
        <linearGradient x1="50%" y1="0%" x2="50%" y2="100%" id="linearGradient-1">
            <stop stop-color="#FB9B51" offset="0%"></stop>
            <stop stop-color="#FBAE46" offset="100%"></stop>
        </linearGradient>
        <rect id="path-2" x="0" y="0" width="30" height="30" rx="15"></rect>
        <filter x="-50.0%" y="-50.0%" width="200.0%" height="200.0%" filterUnits="objectBoundingBox" id="filter-3">
            <feOffset dx="0" dy="0" in="SourceAlpha" result="shadowOffsetOuter1"></feOffset>
            <feGaussianBlur stdDeviation="5" in="shadowOffsetOuter1" result="shadowBlurOuter1"></feGaussianBlur>
            <feColorMatrix values="0 0 0 0 0.996078431   0 0 0 0 0.619607843   0 0 0 0 0.329411765  0 0 0 0.7 0" type="matrix" in="shadowBlurOuter1"></feColorMatrix>
        </filter>
    </defs>
    <g id="Types/Fire" stroke="none" stroke-width="1" fill="none" fill-rule="evenodd">
        <g id="Group" transform="translate(5.000000, 5.000000)">
            <g id="Rectangle">
                <use fill="black" fill-opacity="1" filter="url(#filter-3)" xlink:href="#path-2"></use>
                <use fill="url(#linearGradient-1)" fill-rule="evenodd" xlink:href="#path-2"></use>
            </g>
            <path d="M14.3333171,8 C15.2308225,8.79122519 15.8048584,9.69777678 16.0554246,10.7196548 C16.431274,12.2524717 15.1868352,14.3393148 16.7487072,14.2575431 C17.7899553,14.2030287 17.8581767,13.3731047 16.9533716,11.7677713 C19.3153199,13.0091875 20.4080624,14.7154903 20.2315992,16.8866796 C20.0551359,19.057869 18.7642717,20.3902613 16.3590065,20.8838564 C16.9879716,20.3674624 17.3634686,19.8861819 17.4854976,19.4400151 C17.6075265,18.9938483 17.5501138,18.3121366 17.3132595,17.3948801 C17.1414795,18.1421247 16.9213713,18.6538308 16.6529351,18.9299984 C16.3101627,19.2826431 15.8903601,19.5274398 15.2887911,19.5924517 C15.7797885,19.351291 16.11789,18.8523331 16.11789,18.2757487 C16.11789,17.4648672 15.4491827,16.8075179 14.6242904,16.8075179 C13.7993981,16.8075179 13.1306908,17.4648672 13.1306908,18.2757487 C13.1306908,18.4970404 13.1804933,18.7068976 13.2696815,18.8950805 C12.9267984,18.6279954 12.7276988,18.2711508 12.6728302,17.8255419 C12.288766,19.4201359 12.6258779,20.592486 13.6841658,21.342592 C14.7424537,22.0926981 16.3081614,22.1453806 18.3812889,21.5006394 C15.4145079,23.5881291 12.8319118,23.495883 10.6335007,21.2239012 C8.73973398,19.2667588 8.49259299,16.9998715 9.89207774,14.4232393 C9.83163703,14.6622656 9.80141668,14.9205154 9.80141668,15.1979887 C9.80141668,15.475462 9.87663645,15.7197553 10.027076,15.9308687 C10.4758301,14.9849672 10.8748325,14.3196783 11.2240831,13.935002 C12.101551,12.9685293 13.3727918,12.3252202 13.8713265,11.7677713 C14.6675021,10.8775078 14.821499,9.62158402 14.3333171,8 Z" id="Path-2" fill="#FFFFFF"></path>
        </g>
    </g>
</svg>