<?xml version="1.0" encoding="UTF-8"?>
<svg width="40px" height="40px" viewBox="0 0 40 40" version="1.1" xmlns="http://www.w3.org/2000/svg" xmlns:xlink="http://www.w3.org/1999/xlink">
    <title>Types/Electric</title>
    <defs>
        <linearGradient x1="50%" y1="0%" x2="50%" y2="98.7107117%" id="linearGradient-1">
            <stop stop-color="#EDD53E" offset="0%"></stop>
            <stop stop-color="#FBE273" offset="100%"></stop>
        </linearGradient>
        <rect id="path-2" x="0" y="0" width="30" height="30" rx="15"></rect>
        <filter x="-50.0%" y="-50.0%" width="200.0%" height="200.0%" filterUnits="objectBoundingBox" id="filter-3">
            <feOffset dx="0" dy="0" in="SourceAlpha" result="shadowOffsetOuter1"></feOffset>
            <feGaussianBlur stdDeviation="5" in="shadowOffsetOuter1" result="shadowBlurOuter1"></feGaussianBlur>
            <feColorMatrix values="0 0 0 0 0.956862745   0 0 0 0 0.835294118   0 0 0 0 0.337254902  0 0 0 0.7 0" type="matrix" in="shadowBlurOuter1"></feColorMatrix>
        </filter>
    </defs>
    <g id="Types/Electric" stroke="none" stroke-width="1" fill="none" fill-rule="evenodd">
        <g id="Group" transform="translate(5.000000, 5.000000)">
            <g id="Rectangle">
                <use fill="black" fill-opacity="1" filter="url(#filter-3)" xlink:href="#path-2"></use>
                <use fill="url(#linearGradient-1)" fill-rule="evenodd" xlink:href="#path-2"></use>
            </g>
            <path d="M12.3788178,9 L17.0860217,9 C17.2788385,9 17.4491743,9.12558656 17.5061859,9.30978214 L19.8236132,16.7970245 C19.8954367,17.0290749 19.7655472,17.2754132 19.5334968,17.3472367 C19.4913783,17.3602731 19.4475389,17.3669025 19.4034489,17.3669025 L16.5221221,17.3669025 C16.4006664,17.3669025 16.3022071,17.4653618 16.3022071,17.5868175 C16.3022071,17.6071396 16.3050239,17.6273637 16.3105773,17.6469124 L17.7535531,22.7264493 C17.8199321,22.9601153 17.6843191,23.2033497 17.4506532,23.2697287 C17.2757144,23.3194246 17.0882311,23.2563306 16.9789318,23.1109796 L10.5295139,14.5342626 C10.3835226,14.3401171 10.4225594,14.0643817 10.6167049,13.9183904 C10.6929173,13.8610811 10.7856901,13.830092 10.8810455,13.830092 L13.1238249,13.830092 C13.2452806,13.830092 13.3437399,13.7316327 13.3437399,13.610177 C13.3437399,13.5856988 13.3396532,13.5613925 13.3316484,13.5382602 L11.9631709,9.58366354 C11.8837338,9.35410807 12.0054288,9.10362014 12.2349843,9.02418309 C12.2812488,9.00817338 12.3298616,9 12.3788178,9 Z" id="Path-5" fill="#FFFFFF"></path>
        </g>
    </g>
</svg>