<?xml version="1.0" encoding="UTF-8"?>
<svg width="40px" height="40px" viewBox="0 0 40 40" version="1.1" xmlns="http://www.w3.org/2000/svg" xmlns:xlink="http://www.w3.org/1999/xlink">
    <title>Types/Fairy</title>
    <defs>
        <linearGradient x1="50%" y1="0%" x2="50%" y2="98.3585555%" id="linearGradient-1">
            <stop stop-color="#EC8CE5" offset="0%"></stop>
            <stop stop-color="#F3A7E7" offset="100%"></stop>
        </linearGradient>
        <rect id="path-2" x="0" y="0" width="30" height="30" rx="15"></rect>
        <filter x="-50.0%" y="-50.0%" width="200.0%" height="200.0%" filterUnits="objectBoundingBox" id="filter-3">
            <feOffset dx="0" dy="0" in="SourceAlpha" result="shadowOffsetOuter1"></feOffset>
            <feGaussianBlur stdDeviation="5" in="shadowOffsetOuter1" result="shadowBlurOuter1"></feGaussianBlur>
            <feColorMatrix values="0 0 0 0 0.949019608   0 0 0 0 0.580392157   0 0 0 0 0.91372549  0 0 0 0.7 0" type="matrix" in="shadowBlurOuter1"></feColorMatrix>
        </filter>
    </defs>
    <g id="Types/Fairy" stroke="none" stroke-width="1" fill="none" fill-rule="evenodd">
        <g id="Group" transform="translate(5.000000, 5.000000)">
            <g id="Rectangle">
                <use fill="black" fill-opacity="1" filter="url(#filter-3)" xlink:href="#path-2"></use>
                <use fill="url(#linearGradient-1)" fill-rule="evenodd" xlink:href="#path-2"></use>
            </g>
            <path d="M15.1164055,7.55609493 C15.1571099,7.57835689 15.190577,7.61182401 15.2128389,7.65252838 L17.096,11.0962967 L19.2298853,10.4787663 C19.3585647,10.4414548 19.4931269,10.5155231 19.5304384,10.6442024 C19.5433592,10.6887633 19.5432306,10.7360948 19.5300678,10.7805848 L18.899,12.9132967 L22.3737683,14.8134578 C22.491316,14.8777467 22.5344907,15.0251545 22.4702018,15.1427022 C22.4479398,15.1834066 22.4144727,15.2168737 22.3737683,15.2391356 L18.93,17.1212967 L19.5300678,19.1483674 C19.5680782,19.2768421 19.4947424,19.4118049 19.3662677,19.4498153 C19.3217777,19.4629781 19.2744462,19.4631067 19.2298853,19.450186 L17.154,18.8482967 L15.2128389,22.400065 C15.14855,22.5176127 15.0011422,22.5607874 14.8835945,22.4964985 C14.8428901,22.4742365 14.809423,22.4407694 14.7871611,22.400065 L12.844,18.8482967 L10.7701147,19.450186 C10.6414353,19.4874975 10.5068731,19.4134292 10.4695616,19.2847498 C10.4566408,19.2401889 10.4567694,19.1928574 10.4699322,19.1483674 L11.069,17.1212967 L7.62623169,15.2391356 C7.50868399,15.1748467 7.46550926,15.0274389 7.52979823,14.9098912 C7.55206019,14.8691868 7.58552731,14.8357197 7.62623169,14.8134578 L11.1,12.9132967 L10.4699322,10.7805848 C10.4319218,10.6521101 10.5052576,10.5171473 10.6337323,10.4791369 C10.6782223,10.4659742 10.7255538,10.4658455 10.7701147,10.4787663 L12.903,11.0962967 L14.7871611,7.65252838 C14.85145,7.53498068 14.9988578,7.49180595 15.1164055,7.55609493 Z M15.1367427,12.5947512 C15.0191951,12.5304622 14.8717873,12.573637 14.8074983,12.6911847 L14.8074983,12.6911847 L14.0499712,14.0762679 L12.664888,14.833795 C12.6241836,14.856057 12.5907165,14.8895241 12.5684545,14.9302285 C12.5041655,15.0477762 12.5473403,15.1951839 12.664888,15.2594729 L12.664888,15.2594729 L14.0499712,16.0170001 L14.8074983,17.4020833 C14.8297603,17.4427877 14.8632274,17.4762548 14.9039318,17.4985167 C15.0214795,17.5628057 15.1688872,17.519631 15.2331762,17.4020833 L15.2331762,17.4020833 L15.9907034,16.0170001 L17.3757866,15.2594729 C17.416491,15.2372109 17.4499581,15.2037438 17.47222,15.1630394 C17.536509,15.0454917 17.4933343,14.898084 17.3757866,14.833795 L17.3757866,14.833795 L15.9907034,14.0762679 L15.2331762,12.6911847 C15.2109142,12.6504803 15.1774471,12.6170132 15.1367427,12.5947512 Z" id="Star" fill="#FFFFFF"></path>
        </g>
    </g>
</svg>