<?xml version="1.0" encoding="UTF-8"?>
<svg width="40px" height="40px" viewBox="0 0 40 40" version="1.1" xmlns="http://www.w3.org/2000/svg" xmlns:xlink="http://www.w3.org/1999/xlink">
    <title>Types/Rock</title>
    <defs>
        <linearGradient x1="50%" y1="0%" x2="50%" y2="100%" id="linearGradient-1">
            <stop stop-color="#C5B489" offset="0%"></stop>
            <stop stop-color="#D7CD90" offset="100%"></stop>
        </linearGradient>
        <rect id="path-2" x="0" y="0" width="30" height="30" rx="15"></rect>
        <filter x="-50.0%" y="-50.0%" width="200.0%" height="200.0%" filterUnits="objectBoundingBox" id="filter-3">
            <feOffset dx="0" dy="0" in="SourceAlpha" result="shadowOffsetOuter1"></feOffset>
            <feGaussianBlur stdDeviation="5" in="shadowOffsetOuter1" result="shadowBlurOuter1"></feGaussianBlur>
            <feColorMatrix values="0 0 0 0 0.796078431   0 0 0 0 0.756862745   0 0 0 0 0.580392157  0 0 0 0.7 0" type="matrix" in="shadowBlurOuter1"></feColorMatrix>
        </filter>
    </defs>
    <g id="Types/Rock" stroke="none" stroke-width="1" fill="none" fill-rule="evenodd">
        <g id="Group" transform="translate(5.000000, 5.000000)">
            <g id="Rectangle">
                <use fill="black" fill-opacity="1" filter="url(#filter-3)" xlink:href="#path-2"></use>
                <use fill="url(#linearGradient-1)" fill-rule="evenodd" xlink:href="#path-2"></use>
            </g>
            <path d="M17.994763,16.0289582 C18.0784926,15.9726924 18.1919814,15.9949563 18.2482471,16.0786859 L18.2482471,16.0786859 L19.5402498,18.0013275 C19.5953034,18.0832533 19.5753126,18.1940961 19.4951075,18.2516275 L19.4951075,18.2516275 L15.7388605,20.9460003 C15.6915423,20.9799419 15.6308759,20.9892874 15.5755366,20.9711598 L15.5755366,20.9711598 L12.3270519,19.907049 L17.9934943,16.0298184 C17.993916,16.0295299 17.9943389,16.0292432 17.994763,16.0289582 Z M18.4174895,10.025577 L18.430915,10.0270729 C18.5306916,10.0419431 18.5995218,10.1348828 18.5846516,10.2346594 L18.5846516,10.2346594 L17.8948592,14.8630405 C17.8874078,14.9130378 17.8595702,14.9577117 17.8179712,14.9864306 L17.8179712,14.9864306 L11.1321679,19.6021331 C11.0852279,19.6345392 11.0258442,19.643157 10.9716289,19.6254304 L10.9716289,19.6254304 L8.12589147,18.6949695 C8.05079644,18.6704159 8,18.6003644 8,18.5213572 L8,18.5213572 L8,15.5984606 C8,15.5558932 8.01486712,15.5146625 8.04203318,15.4818908 L8.04203318,15.4818908 L12.5106658,10.0911646 C12.5453672,10.0493027 12.5969149,10.0250775 12.6512895,10.0250775 L12.6512895,10.0250775 L18.4174895,10.025577 L18.4174895,10.025577 Z M19.85606,10 C19.9357471,10 20.0062374,10.0516595 20.0302365,10.1276468 L20.0302365,10.1276468 L21.9618054,16.2435092 C21.9847719,16.3162274 21.9601452,16.3955609 21.9000374,16.4424911 L21.9000374,16.4424911 L20.6610433,17.4098568 C20.6596229,17.4109657 20.6581863,17.4120536 20.6567337,17.41312 C20.5754181,17.4728214 20.4611012,17.4552996 20.4013998,17.3739839 L20.4013998,17.3739839 L18.8535633,15.2657685 C18.8242281,15.2258128 18.8123913,15.1756505 18.8207697,15.1267954 L18.8207697,15.1267954 L19.6754923,10.1428775 C19.6896478,10.0603365 19.7612126,10 19.8449586,10 L19.8449586,10 Z" id="Path-8" fill="#FFFFFF"></path>
        </g>
    </g>
</svg>