<?xml version="1.0" encoding="UTF-8"?>
<svg width="40px" height="40px" viewBox="0 0 40 40" version="1.1" xmlns="http://www.w3.org/2000/svg" xmlns:xlink="http://www.w3.org/1999/xlink">
    <title>Types/Flying</title>
    <defs>
        <linearGradient x1="50%" y1="0%" x2="50%" y2="100%" id="linearGradient-1">
            <stop stop-color="#90A7DA" offset="0%"></stop>
            <stop stop-color="#A6C2F2" offset="100%"></stop>
        </linearGradient>
        <rect id="path-2" x="0" y="0" width="30" height="30" rx="15"></rect>
        <filter x="-50.0%" y="-50.0%" width="200.0%" height="200.0%" filterUnits="objectBoundingBox" id="filter-3">
            <feOffset dx="0" dy="0" in="SourceAlpha" result="shadowOffsetOuter1"></feOffset>
            <feGaussianBlur stdDeviation="5" in="shadowOffsetOuter1" result="shadowBlurOuter1"></feGaussianBlur>
            <feColorMatrix values="0 0 0 0 0.615686275   0 0 0 0 0.709803922   0 0 0 0 0.894117647  0 0 0 0.7 0" type="matrix" in="shadowBlurOuter1"></feColorMatrix>
        </filter>
    </defs>
    <g id="Types/Flying" stroke="none" stroke-width="1" fill="none" fill-rule="evenodd">
        <g id="Group" transform="translate(5.000000, 5.000000)">
            <g id="Rectangle">
                <use fill="black" fill-opacity="1" filter="url(#filter-3)" xlink:href="#path-2"></use>
                <use fill="url(#linearGradient-1)" fill-rule="evenodd" xlink:href="#path-2"></use>
            </g>
            <path d="M13.2356908,22 C15.4330554,22 17.3142584,20.7787506 18.0908974,19.0475411 C18.1003794,19.0264049 14.9728588,19.8603302 15.0725926,19.5655247 C15.11712,19.4339052 17.0342952,18.7335226 18.4310925,17.916612 C18.9663019,17.6035972 19.3571388,17.1157673 19.603603,16.4531224 C18.7019066,16.8909106 18.0231366,17.1653395 17.5672931,17.2764092 C16.1894033,17.6121422 14.9765037,17.5759807 14.9765037,17.5410027 C14.9765037,17.465364 16.9905127,17.0826887 19.789778,15.3768758 C20.667555,14.8419771 21.2256593,14.1138433 21.4640908,13.1924743 C20.4990268,13.767309 19.7247914,14.1496203 19.1413846,14.3394084 C17.0661164,15.0145139 15.1723264,15.2179368 15.1723264,15.1265782 C15.1723264,14.9310137 16.8389257,14.4727006 18.6059347,13.616512 C19.5246782,13.1713429 20.3203483,12.5897318 21.2424239,11.9429723 C22.2482418,11.2374746 22.8341005,10.2564838 23,9 C22.0079517,9.63984504 21.2698689,10.0660107 20.7857515,10.2784969 C17.7892864,11.5936892 15.143431,12.2835612 13.2356908,12.4329271 C10.3559384,12.6583964 8,14.667642 8,17.2764092 C8,19.8851764 10.3440986,22 13.2356908,22 Z" id="Oval-2" fill="#FFFFFF"></path>
        </g>
    </g>
</svg>