<?xml version="1.0" encoding="UTF-8"?>
<svg width="40px" height="40px" viewBox="0 0 40 40" version="1.1" xmlns="http://www.w3.org/2000/svg" xmlns:xlink="http://www.w3.org/1999/xlink">
    <title>Types/Dragon</title>
    <defs>
        <linearGradient x1="50%" y1="0%" x2="50%" y2="98.7107117%" id="linearGradient-1">
            <stop stop-color="#0C69C8" offset="0%"></stop>
            <stop stop-color="#0180C7" offset="100%"></stop>
        </linearGradient>
        <rect id="path-2" x="0" y="0" width="30" height="30" rx="15"></rect>
        <filter x="-50.0%" y="-50.0%" width="200.0%" height="200.0%" filterUnits="objectBoundingBox" id="filter-3">
            <feOffset dx="0" dy="0" in="SourceAlpha" result="shadowOffsetOuter1"></feOffset>
            <feGaussianBlur stdDeviation="5" in="shadowOffsetOuter1" result="shadowBlurOuter1"></feGaussianBlur>
            <feColorMatrix values="0 0 0 0 0.0274509804   0 0 0 0 0.42745098   0 0 0 0 0.752941176  0 0 0 0.7 0" type="matrix" in="shadowBlurOuter1"></feColorMatrix>
        </filter>
    </defs>
    <g id="Types/Dragon" stroke="none" stroke-width="1" fill="none" fill-rule="evenodd">
        <g id="Group" transform="translate(5.000000, 5.000000)">
            <g id="Rectangle">
                <use fill="black" fill-opacity="1" filter="url(#filter-3)" xlink:href="#path-2"></use>
                <use fill="url(#linearGradient-1)" fill-rule="evenodd" xlink:href="#path-2"></use>
            </g>
            <path d="M16.275701,7 C16.8447821,7 16.725287,7.70852142 16.6938702,8.01593564 C16.6729257,8.22087846 16.4642515,8.80288969 16.0678476,9.76196934 C16.0088415,9.98616507 15.9793004,10.1443056 15.9792244,10.2363909 C19.3484073,10.4914109 22,13.2464662 22,16.6072354 C22,20.1378618 19.0736049,23 15.4637136,23 C12.5041585,23 10.0040136,21.0762208 9.19924541,18.4374897 C9.18210758,18.3585219 9.16881953,18.2830162 9.15886211,18.2099537 C9.0751312,17.5955786 9.0751312,17.1699371 9.28389952,17.2459098 C9.39939108,17.2879383 9.63002849,18.0519542 9.97641005,18.6786564 C10.2561651,19.1848124 10.6680758,19.5864783 10.7148818,19.5619876 C10.7719097,19.5321483 10.4769786,19.1521147 10.2736971,18.7890725 C10.1035549,18.4852141 9.98775529,18.1694719 10.1408343,18.1292762 C10.3262062,18.0806008 10.7226122,18.7014357 11.1630176,19.191127 C11.5208167,19.5889675 11.9453659,19.8755426 12.006289,19.8447885 C12.0815356,19.8068038 11.8201909,19.4908065 11.643711,19.191127 C11.5014299,18.9495203 11.3803489,18.7507995 11.499127,18.6786564 C11.7534024,18.524215 12.502046,19.529586 12.6211889,19.4289849 C12.7403318,19.3283837 12.3747064,18.8736597 12.687993,18.8304582 C12.7354774,18.8239102 12.8040464,18.8534266 12.9000544,18.9043597 L13.0654399,18.9949909 C13.1549654,19.0441714 13.2601865,19.1005766 13.3834356,19.1588299 C13.8368303,19.4947429 14.4011628,19.6933976 15.0129352,19.6933976 C16.5066834,19.6933976 17.7176055,18.5090646 17.7176055,17.0481157 C17.7176055,15.9518384 17.0357583,15.0113182 16.0642112,14.6100917 C15.9816486,14.7825545 15.8869784,14.9000342 15.7804187,14.9650463 C15.462003,15.1593114 15.5100271,15.0991861 14.9897931,15.2043337 C14.6429705,15.2744321 12.5326785,15.7538199 8.65891695,16.6424972 C8.37056813,16.6704806 8.16660717,16.6234276 8.04703406,16.5013384 C7.92746095,16.3792492 8.03587787,16.0172041 8.37228482,15.4152031 C9.41253731,13.5388183 10.0777314,12.45921 10.367867,12.1763783 C10.5525569,11.9963378 12.0556145,10.9986862 13.6011274,9.65197157 C14.1037211,9.21402619 14.9901156,8.39198785 15.51724,7.73371921 C15.7810614,7.4042612 15.8830198,7 16.275701,7 Z M12.7419135,12.4510272 C12.2366163,12.7873581 11.8800027,13.0543472 11.6720728,13.2519946 C11.4641429,13.449642 11.18775,13.7843559 10.8428942,14.2561363 C11.4838138,14.2956158 11.9807669,14.1475902 12.3337534,13.8120596 C12.6867398,13.476529 12.8227932,13.0228515 12.7419135,12.4510272 Z" id="Oval-8" fill="#FFFFFF"></path>
        </g>
    </g>
</svg>